<svg xmlns="http://www.w3.org/2000/svg" viewBox="0 0 24 24" fill="currentColor">
  <!-- Activity Bar monochrome chip icon -->
  <rect x="7" y="1.4" width="1.7" height="3.3" rx="0.65"/>
  <rect x="11.15" y="1.4" width="1.7" height="3.3" rx="0.65"/>
  <rect x="15.3" y="1.4" width="1.7" height="3.3" rx="0.65"/>
  <rect x="7" y="19.3" width="1.7" height="3.3" rx="0.65"/>
  <rect x="11.15" y="19.3" width="1.7" height="3.3" rx="0.65"/>
  <rect x="15.3" y="19.3" width="1.7" height="3.3" rx="0.65"/>
  <rect x="1.4" y="7" width="3.3" height="1.7" rx="0.65"/>
  <rect x="1.4" y="11.15" width="3.3" height="1.7" rx="0.65"/>
  <rect x="1.4" y="15.3" width="3.3" height="1.7" rx="0.65"/>
  <rect x="19.3" y="7" width="3.3" height="1.7" rx="0.65"/>
  <rect x="19.3" y="11.15" width="3.3" height="1.7" rx="0.65"/>
  <rect x="19.3" y="15.3" width="3.3" height="1.7" rx="0.65"/>
  <path fill-rule="evenodd" d="M6.2 5.2h11.6A2.2 2.2 0 0 1 20 7.4v9.2a2.2 2.2 0 0 1-2.2 2.2H6.2A2.2 2.2 0 0 1 4 16.6V7.4a2.2 2.2 0 0 1 2.2-2.2zm1.7 5.1h8.2a1.1 1.1 0 0 1 1.1 1.1v1.7a1.1 1.1 0 0 1-1.1 1.1H7.9a1.1 1.1 0 0 1-1.1-1.1v-1.7a1.1 1.1 0 0 1 1.1-1.1zM7.6 7.6a.9.9 0 1 0 0 1.8.9.9 0 0 0 0-1.8z"/>
</svg>
